Patient4_TMGait_0pt2_02_left_04_EMG.mot
version=1
nRows=16
nColumns=33
inDegrees=no
endheader
time	1LAddLong	2LGlutMax	3LGlutMed	4LIliopsoas	5LSemiMemb	6LBicFemLong	7LRecFem	8LVastMed	9LVastLat	10LGasMed	11LTibAnt	12lTibPost	13LPeroneusLong	14LSol	15LExtDigLong	16LFlexDigLong	17RAddLong	18RGlutMax	19RGlutMed	20RIliopsoas	21RSemiMemb	22RBicFemLong	23RRecFem	24RVastMed	25RVastLat	26RGasMed	27RTibAnt	28RTibPost	29RPeroneusLong	30RSol	31RExtDigLong	32RFlexDigLong
9.58	0.020142	-0.027771	0.005493	0.006561	-0.019073	-0.10086	0.037842	0.001068	-0.10361	-0.095673	0.009918	0.001984	0.045929	0.025024	0.08667	0.003204	0.007629	-0.011749	-0.1265	-0.092468	0.013275	0.00412	0.032196	-0.033722	0.044098	-0.026398	0.011444	-0.29159	0.13107	0.13733	-0.00061	-0.022736
9.581	0.012512	-0.037231	0.018463	-0.013275	-0.041962	-0.071564	0.055237	0.002594	-0.20996	-0.018616	0.032196	0.002747	0	0.14664	0.090332	-0.01236	0.010223	-0.00824	-0.13702	-0.033417	0.006714	0.009766	0.029297	-0.034332	0.15289	-0.013428	-0.036011	-0.4776	0.055237	0.60211	0	-0.001068
9.582	0.00351	-0.05661	0.032043	-0.003052	-0.021515	-0.014191	0.062103	0.002747	-0.20874	-0.010986	0.005493	0.003967	0.017548	0.12436	0.057983	-0.03006	0.00061	-0.022583	-0.075836	0.0914	0.019836	0.035553	0.085449	0.034943	0.19943	-0.001831	-0.039978	0.46463	0.14114	1.0089	-0.004578	-0.011444
9.583	0.00061	-0.027313	0.007172	0.007782	0.04776	-0.070953	0.06897	0.001068	-0.11231	-0.02243	0.012207	-0.014954	-0.087585	0.04837	0.034332	0.094147	-0.00412	-0.10651	-0.001678	0.17166	-0.015869	0.045624	0.27832	0.003052	0.10834	0.007935	-0.044098	0.11673	0.13763	1.0902	-0.000763	-0.001526
9.584	-0.008545	-0.018311	0.01709	0.030212	0.007477	-0.1889	0.062561	0.010376	-0.046539	0.011139	0.015106	-0.000458	-0.12436	-0.033722	-0.001526	-0.087585	0.007172	-0.058289	0.003204	0.12695	-0.042267	0.061188	0.30807	-0.042267	0.009003	0.00473	-0.00473	0.072479	0.055695	0.46524	-0.003204	-0.004578
9.585	-0.009308	-0.007324	0.009613	0.014038	0.00061	-0.20737	0.079498	0.002747	-0.035095	0.025177	0.015564	0.006104	0.15915	-0.11551	-0.039978	0.10986	0.003052	-0.076141	0.10986	0.063477	-0.062103	0.053406	0.22324	-0.053864	-0.008087	-0.001984	0.009766	0.044708	-0.079346	-0.35568	0.000153	-0.012817
9.586	-0.003815	0.038605	-0.017242	0.003815	0.029602	-0.15213	0.050812	0.007935	-0.018768	0.033264	0.011444	0.020294	0.20203	-0.029602	0.000153	0.20416	0.002899	-0.080566	0.040741	0.064697	0.027771	-0.00824	0.15472	-0.1004	-0.005035	0.002747	0.015259	-0.033875	-0.14481	-0.67032	-0.002136	-0.012665
9.587	-0.001984	-0.006561	-0.029755	-0.002289	0.022278	-0.086823	0.046234	0.005798	-0.022736	-0.093384	0.001984	0.006714	-0.1326	0.099335	-0.00885	-0.088959	0.012054	-0.031128	-0.016632	0.065155	0.024567	-0.011749	0.2153	-0.070343	-0.083771	0.006866	0.002289	-0.047455	-0.036774	-0.49179	-0.002136	-0.002899
9.588	-0.014801	0.008698	-0.011902	0.010986	-0.054626	-0.07843	0.042877	0.013733	-0.041504	-0.10071	-0.005035	0.010223	-0.10437	0.000763	-0.046997	-0.1268	0.002136	-0.005493	-0.088501	0.001221	0.023193	-0.013275	0.020905	-0.050201	-0.072327	0.010834	0.016174	-0.062714	-0.002136	-0.33676	0.002899	-0.000153
9.589	-0.022278	-0.004578	0.015106	0.002594	-0.06485	-0.025024	0.046387	0.001526	-0.030365	0.13062	0.00946	0.005341	0.17639	-0.20462	-0.047302	-0.036469	-0.016479	0.028534	0.012817	-0.05249	0.056	-0.032959	-0.31174	-0.048523	0.016937	0.007629	0.010223	-0.060272	-0.046692	-0.38925	0.001068	0.001831
9.59	-0.003815	-0.015411	0.043945	0.003967	-0.12421	0.050659	0.032806	-0.001831	-0.012665	0.067139	0.049591	-0.050964	0.078735	-0.15701	0.050354	-0.016174	-0.007172	-0.033875	-0.001526	-0.036163	0.027466	-0.025024	-0.24796	0.003357	0.21423	0.009155	-0.006714	-0.050659	-0.047913	-0.32288	0.001068	-0.009003
9.591	0.00351	-0.03067	-0.018921	-0.005035	-0.081024	0.025635	0.006256	-0.003204	-0.003815	-0.15503	0.038605	0	-0.11505	0.084534	0.094147	-0.012817	0.002747	-0.028534	-0.10437	-0.068359	0.025482	-0.036774	-0.033875	0.010223	0.23178	0.013123	-0.011749	-0.085907	-0.031738	-0.2066	0.003662	0.000458
9.592	-0.001831	-0.049896	0.002441	-0.010681	0.086365	-0.011597	0.018311	0.002747	0.002289	-0.25955	-0.001984	0.027618	0.47455	0.29877	0.082092	0.002747	0.01358	-0.067902	0.4982	-0.16937	0.011902	-0.052643	0.052032	0.057373	0.15732	0.007782	0.009308	-0.032196	-0.009613	-0.14084	-0.003662	-0.001678
9.593	-0.007629	-0.050049	0.019379	0.004883	0.054321	-0.029602	0.031433	0.004578	-0.013123	-0.30426	-0.026398	0.015869	-0.11368	0.18829	-0.00885	0.015411	0.021515	-0.074768	0.5513	-0.23575	-0.036621	-0.023956	0.019836	-0.030518	0.11658	0.010071	0.032806	-0.040131	0.018158	-0.103	-0.001984	-0.016174
9.594	-0.014954	-0.028381	0.010529	0.006256	0.043488	0.035095	0.034637	0.007172	-0.009918	-0.16235	-0.027161	0.013428	0.3743	0.44846	0.072327	0.014648	0.017395	-0.035553	0.19058	-0.16815	-0.019836	-0.04364	-0.059509	0.055389	0.079041	0.007019	0.009308	0.008545	-0.048828	-0.40527	0.002289	-0.013428
9.595	-0.012054	-0.014648	0.006714	-0.006561	0.018921	0.1149	0.023499	0.003204	0.003357	0.01709	0.013733	0.016937	0.76904	0.30563	-0.026093	0.007935	0.019989	-0.04364	-0.15442	-0.12436	-0.009766	-0.04364	-0.081482	0.0737	0.005951	0.014038	-0.004272	0.002289	-0.10559	-0.42725	-0.002594	-0.013123
